<svg width="1280" height="720" xmlns="http://www.w3.org/2000/svg" xmlns:xlink="http://www.w3.org/1999/xlink" overflow="hidden"><defs><clipPath id="clip0"><rect x="0" y="0" width="1280" height="720"/></clipPath></defs><g clip-path="url(#clip0)"><rect x="0" y="0" width="1280" height="720" fill="#D9D9D9"/><path d="M7.50005 13.5005C7.50005 6.32054 13.3205 0.500053 20.5005 0.500053L385.5 0.500053C392.68 0.500053 398.5 6.32054 398.5 13.5005L398.5 65.4996C398.5 72.6796 392.68 78.5001 385.5 78.5001L20.5005 78.5001C13.3205 78.5001 7.50005 72.6796 7.50005 65.4996Z" stroke="#2F528F" stroke-width="1.33333" stroke-miterlimit="8" fill="#FFFFFF" fill-rule="evenodd"/><path d="M423.5 13.5002C423.5 6.32042 429.32 0.500053 436.5 0.500053L1260.5 0.500053C1267.68 0.500053 1273.5 6.32042 1273.5 13.5002L1273.5 65.4999C1273.5 72.6797 1267.68 78.5001 1260.5 78.5001L436.5 78.5001C429.32 78.5001 423.5 72.6797 423.5 65.4999Z" stroke="#2F528F" stroke-width="1.33333" stroke-miterlimit="8" fill="#FFFFFF" fill-rule="evenodd"/><path d="M7.50005 112.779C7.50005 98.8178 18.8178 87.5001 32.779 87.5001L471.221 87.5001C485.182 87.5001 496.5 98.8178 496.5 112.779L496.5 437.221C496.5 451.182 485.182 462.5 471.221 462.5L32.779 462.5C18.8178 462.5 7.50005 451.182 7.50005 437.221Z" stroke="#2F528F" stroke-width="1.33333" stroke-miterlimit="8" fill="#FFFFFF" fill-rule="evenodd"/><path d="M503.5 103.746C503.5 94.7735 510.774 87.5001 519.746 87.5001L810.254 87.5001C819.227 87.5001 826.5 94.7735 826.5 103.746L826.5 312.254C826.5 321.227 819.227 328.5 810.254 328.5L519.746 328.5C510.774 328.5 503.5 321.227 503.5 312.254Z" stroke="#2F528F" stroke-width="1.33333" stroke-miterlimit="8" fill="#FFFFFF" fill-rule="evenodd"/><path d="M838.5 103.746C838.5 94.7736 845.774 87.5001 854.746 87.5001L1257.25 87.5001C1266.23 87.5001 1273.5 94.7736 1273.5 103.746L1273.5 312.254C1273.5 321.227 1266.23 328.5 1257.25 328.5L854.746 328.5C845.774 328.5 838.5 321.227 838.5 312.254Z" stroke="#2F528F" stroke-width="1.33333" stroke-miterlimit="8" fill="#FFFFFF" fill-rule="evenodd"/><path d="M5.50005 488.218C5.50005 478.985 12.9849 471.5 22.2179 471.5L479.782 471.5C489.015 471.5 496.5 478.985 496.5 488.218L496.5 702.782C496.5 712.015 489.015 719.5 479.782 719.5L22.2179 719.5C12.9849 719.5 5.50005 712.015 5.50005 702.782Z" stroke="#2F528F" stroke-width="1.33333" stroke-miterlimit="8" fill="#FFFFFF" fill-rule="evenodd"/><path d="M503.5 368.846C503.5 354.848 514.848 343.5 528.846 343.5L1250.15 343.5C1264.15 343.5 1275.5 354.848 1275.5 368.846L1275.5 694.154C1275.5 708.152 1264.15 719.5 1250.15 719.5L528.846 719.5C514.848 719.5 503.5 708.152 503.5 694.154Z" stroke="#2F528F" stroke-width="1.33333" stroke-miterlimit="8" fill="#FFFFFF" fill-rule="evenodd"/></g></svg>